<svg version="1.0" xmlns="http://www.w3.org/2000/svg" xmlns:xlink="http://www.w3.org/1999/xlink"
     width="100%" height="100%" viewBox="0 0 340.000000 250.000000" style="transform: scale(1.25);">
    <g fill="#fff" transform="translate(68.90499877929688,72.33399963378906)">
        <polyline stroke="#231f20" stroke-width="2" fill-opacity="0"
                  points="1,49.99800109863281 1,-0.0019989013671875 202.19000244140625,-0.0019989013671875 202.19000244140625,105.33000183105469 152.19000244140625,105.33000183105469"></polyline>
        <g fill="#fff" transform="translate(0,62)">
            <g transform="translate(5.779998779296875,0)">
                <g fill="#231f20">
                    <path d="M19.19-14.77L19.19-10.76L24.57-10.76L24.57-8.63L19.19-8.63L19.19-4.94L24.57-4.94L24.57-2.81L19.19-2.81L19.19 1.12L24.83 1.12L24.83 2.03Q24.83 2.60 24.51 2.93Q24.18 3.25 23.63 3.25L23.63 3.25L11.00 3.25L11.00 4.03L8.50 4.03L8.50-13.18Q7.49-12.32 6.24-11.67L6.24-11.67L6.24-14.17Q7.44-15.11 8.32-16.59Q9.20-18.07 9.62-19.63L9.62-19.63L12.12-19.63Q12.04-18.28 11.39-16.90L11.39-16.90L17.13-16.90L15.91-19.63L18.38-19.63L19.47-16.90L24.83-16.90L24.83-14.77L19.19-14.77ZM2.83-15.94Q2.16-15.94 1.68-16.41Q1.20-16.87 1.20-17.55L1.20-17.55Q1.20-18.23 1.68-18.71Q2.16-19.19 2.83-19.19L2.83-19.19Q3.51-19.19 3.98-18.71Q4.45-18.23 4.45-17.55L4.45-17.55Q4.45-16.90 3.97-16.42Q3.48-15.94 2.83-15.94L2.83-15.94ZM16.69-10.76L16.69-14.14Q16.69-14.40 16.52-14.59Q16.35-14.77 16.09-14.77L16.09-14.77L11.00-14.77L11.00-10.76L16.69-10.76ZM1.35-13.13Q3.82-13.10 5.16-11.74Q6.50-10.37 6.50-7.51L6.50-7.51Q6.50-5.10 5.51-1.72L5.51-1.72L3.82 4.03L1.33 4.03L2.94-1.90Q3.90-5.46 3.90-7.49L3.90-7.49Q3.90-9.20 3.25-9.91Q2.60-10.61 1.35-10.74L1.35-10.74L1.35-13.13ZM16.69-4.94L16.69-8.01Q16.69-8.27 16.52-8.45Q16.35-8.63 16.09-8.63L16.09-8.63L11.00-8.63L11.00-4.94L16.69-4.94ZM16.69 1.12L16.69-2.18Q16.69-2.44 16.52-2.63Q16.35-2.81 16.09-2.81L16.09-2.81L11.00-2.81L11.00 1.12L16.69 1.12ZM32.89-19.63L32.89-16.20L35.46-16.20L35.46-14.07L32.89-14.07L32.89 1.90L35.15 1.90L35.15 2.96Q35.15 3.41 34.84 3.72Q34.53 4.03 34.09 4.03L34.09 4.03L27.17 4.03L27.17 1.90L30.39 1.90L30.39-13.05Q30.39-13.73 30.11-13.90Q29.82-14.07 28.86-14.07L28.86-14.07L27.17-14.07L27.17-16.20L30.39-16.20L30.39-19.63L32.89-19.63ZM51.01-9.70L48.20-3.35Q49.22 0.44 50.73 4.03L50.73 4.03L48.23 4.03Q47.40 2.16 46.72 0.03L46.72 0.03L44.98 4.00L42.48 4.00L45.76-3.43Q44.59-8.19 43.99-15.03L43.99-15.03L38.27-15.03L38.27-12.48L40.64-12.48Q42.02-12.48 42.86-11.92Q43.71-11.36 43.71-10.14L43.71-10.14L43.71-0.49Q43.71 0.03 43.34 0.39Q42.98 0.75 42.46 0.75L42.46 0.75L38.97 0.75L38.97-1.38L41.21-1.38L41.21-8.50L41.24-9.26Q41.24-9.80 40.98-10.08Q40.72-10.35 39.94-10.35L39.94-10.35L38.27-10.35L38.27 2.78Q38.27 3.30 37.91 3.67Q37.54 4.03 37.02 4.03L37.02 4.03L35.78 4.03L35.78-14.82Q35.78-15.60 36.32-16.30Q36.87-17.00 38.48-17.00L38.48-17.00L43.81-17.00L43.63-19.63L46.12-19.63L46.28-17.00L48.65-17.00L47.61-19.63L49.74-19.63L50.70-16.64L50.70-15.96Q50.70-15.52 50.25-15.28Q49.79-15.03 49.30-15.03L49.30-15.03L46.44-15.03Q46.80-10.30 47.40-7.15L47.40-7.15L48.52-9.70L51.01-9.70ZM53.30-9.57L53.30-7.44L76.70-7.44L76.70-9.57L53.30-9.57ZM80.55-5.36L80.52-17.16Q80.52-18.10 81.20-18.77Q81.87-19.45 82.81-19.45L82.81-19.45L99.22-19.45Q100.15-19.45 100.82-18.77Q101.48-18.10 101.48-17.16L101.48-17.16L101.48-7.62Q101.48-6.68 100.82-6.02Q100.15-5.36 99.22-5.36L99.22-5.36L80.55-5.36ZM83.04-7.49L98.98-7.49L98.98-16.67Q98.98-16.93 98.80-17.12Q98.62-17.32 98.36-17.32L98.36-17.32L83.02-17.32L83.04-7.49ZM82.86-3.64L85.36-3.64L81.93 4.03L79.43 4.03L82.86-3.64ZM99.27-3.64L102.70 4.03L100.20 4.03L96.77-3.64L99.27-3.64ZM126.49-17.60L128.83-17.60L128.83-15.47L126.49-15.47L126.49-12.56L123.99-12.56L123.99-14.92Q123.99-15.24 123.85-15.34Q123.71-15.44 123.47-15.47L123.47-15.47L117.52-15.47L117.52-12.56L115.02-12.56L115.02-14.92Q115.02-15.42 114.40-15.47L114.40-15.47L112.68-15.47L112.68-17.60L115.02-17.60L115.02-19.71L117.52-19.71L117.52-17.60L123.99-17.60L123.99-19.71L126.49-19.71L126.49-17.60ZM112.79-18.67Q111.90-16.09 110.84-14.22L110.84-14.22L110.94-13.99L110.94 0.91Q110.94 2.18 110.03 3.08Q109.12 3.98 107.85 3.98L107.85 3.98L105.17 3.98L105.17 1.85L105.82 1.82Q106.76 1.79 107.28 1.70Q107.80 1.61 108.12 1.22Q108.45 0.83 108.45 0L108.45 0L108.45-4.60Q107.77-3.98 107.07-3.60Q106.37-3.22 105.17-2.68L105.17-2.68L105.17-5.20Q106.42-5.93 107.11-6.41Q107.80-6.89 108.45-7.67L108.45-7.67L108.45-11.28Q107.74-10.66 106.99-10.18Q106.24-9.70 105.17-9.15L105.17-9.15L105.17-11.65Q106.86-12.40 108.21-14.25L108.21-14.25L105.95-19.63L108.45-19.63L109.67-16.90Q110.14-18.12 110.29-18.67L110.29-18.67L112.79-18.67ZM126.10-11.28Q127.04-11.28 127.70-10.61Q128.36-9.93 128.36-9.00L128.36-9.00L128.36 1.74Q128.36 2.68 127.70 3.34Q127.04 4.00 126.10 4.00L126.10 4.00L113.28 4.00L113.28-9.00Q113.28-9.93 113.95-10.61Q114.61-11.28 115.57-11.28L115.57-11.28L126.10-11.28ZM119.57-9.15L115.78-9.15L115.78-4.73L119.57-4.73L119.57-9.15ZM125.87-4.73L125.87-8.50Q125.87-8.76 125.68-8.96Q125.50-9.15 125.24-9.15L125.24-9.15L122.07-9.15L122.07-4.73L125.87-4.73ZM115.78-2.60L115.78 1.87L119.57 1.87L119.57-2.60L115.78-2.60ZM125.87 1.87L125.87-1.90Q125.87-2.31 125.63-2.46Q125.40-2.60 124.98-2.60L124.98-2.60L122.07-2.60L122.07 1.87L125.87 1.87Z"
                          transform="translate(-1.196, 19.708)"></path>
                </g>
            </g>
            <g fill="#fff"
               transform="translate(0,30.739999771118164)">
                <g mask="url(#9bc825fd-0a52-40e8-a37c-8013c0e09e00)">
                    <g>
                        <rect stroke-width="2" x="0" y="0" width="139.19000244140625"
                              height="12.59000015258789" fill-opacity="1"></rect>
                    </g>
                    <g transform="translate(5,2)">
                        <g fill="#231f20">
                            <path d="M5.96-7.54L5.96-7.54Q6.80-7.28 6.95-7.02L6.95-7.02Q6.95-6.95 6.80-6.84L6.80-6.84Q6.62-6.69 6.51-6.58L6.51-6.58Q6.25-6.36 5.82-5.67L5.82-5.67L6.55-5.67Q7.28-5.67 8.16-5.74L8.16-5.74L8.16-4.90Q7.50-4.97 6.55-4.97L6.55-4.97L4.94-4.97L4.94-3.22L6.73-3.22Q7.83-3.26 8.52-3.33L8.52-3.33L8.52-2.49Q7.75-2.56 6.73-2.56L6.73-2.56L5.05-2.56Q6.25-0.37 8.93-0.22L8.93-0.22Q8.30 0.15 8.05 0.69L8.05 0.69Q5.78 0.04 4.68-1.94L4.68-1.94Q3.80-0.11 1.21 0.88L1.21 0.88Q0.80 0.33 0.33 0.07L0.33 0.07Q3.47-0.55 4.06-2.56L4.06-2.56L2.30-2.56Q1.43-2.56 0.77-2.49L0.77-2.49L0.77-3.33Q1.54-3.29 2.30-3.26L2.30-3.26L4.17-3.26L4.17-4.97L2.74-4.97Q1.90-4.97 1.13-4.90L1.13-4.90L1.13-5.74Q2.01-5.67 2.74-5.67L2.74-5.67L5.05-5.67Q5.63-6.66 5.96-7.54ZM2.34-7.10L3.15-7.46Q3.44-7.10 4.02-6.25L4.02-6.25Q4.10-6.22 4.10-6.18L4.10-6.18L3.26-5.74Q3.00-6.29 2.34-7.10L2.34-7.10ZM14.38-7.28L15.25-7.54Q15.40-7.21 15.44-7.10L15.44-7.10Q15.47-6.99 15.51-6.91L15.51-6.91Q15.51-6.84 15.73-6.25L15.73-6.25L14.85-6.04Q14.70-6.62 14.38-7.28L14.38-7.28ZM10.46-6.55L11.01-7.17Q11.81-6.55 12.40-6.07L12.40-6.07L11.81-5.38Q11.19-6.04 10.46-6.55L10.46-6.55ZM18.00-5.96L18.00-5.96L18.00-5.12Q17.45-5.19 16.39-5.19L16.39-5.19L15.51-5.19L15.51-3.33L16.31-3.33Q17.08-3.33 17.63-3.40L17.63-3.40L17.63-2.60Q17.63-2.63 16.28-2.63L16.28-2.63L15.51-2.63L15.51-0.26L16.31-0.26Q17.27-0.26 18.14-0.33L18.14-0.33L18.14 0.44Q17.34 0.37 16.35 0.37L16.35 0.37L13.64 0.37Q12.84 0.37 12.00 0.40L12.00 0.40L12.00-0.29Q12.25-0.29 12.88-0.26L12.88-0.26Q13.46-0.26 13.64-0.26L13.64-0.26L14.67-0.26L14.67-2.63L13.97-2.63Q12.91-2.63 12.62-2.60L12.62-2.60L12.62-3.44Q13.02-3.33 14.05-3.33L14.05-3.33L14.67-3.33L14.67-5.19L13.97-5.19Q12.66-5.19 12.47-5.16L12.47-5.16L12.47-5.96Q12.47-5.96 12.62-5.96L12.62-5.96Q13.64-5.89 13.97-5.89L13.97-5.89L16.39-5.89Q17.52-5.93 18.00-5.96ZM9.91-4.46L10.39-5.16Q11.34-4.54 11.89-4.06L11.89-4.06L11.34-3.37Q10.72-3.95 9.91-4.46L9.91-4.46ZM11.12-3.00L11.12-3.00Q11.56-2.63 11.92-2.52L11.92-2.52Q11.45-0.77 10.90 0.69L10.90 0.69L9.99 0.11Q10.68-1.21 11.12-3.00ZM19.61-6.11L19.61-6.91Q19.86-6.84 21.03-6.84L21.03-6.84L25.90-6.84Q26.78-6.84 27.03-6.91L27.03-6.91L27.03-6.11Q26.81-6.15 25.90-6.15L25.90-6.15L22.57-6.15L22.31-4.83L24.95-4.83Q25.53-4.83 26.01-4.90L26.01-4.90Q25.79-3.66 25.53-1.50L25.53-1.50Q25.42-0.69 25.39-0.48L25.39-0.48L26.34-0.48Q27.32-0.48 27.58-0.55L27.58-0.55L27.58 0.22Q27.32 0.15 26.37 0.15L26.37 0.15L20.52 0.15Q19.50 0.15 19.20 0.22L19.20 0.22L19.20-0.55Q19.20-0.55 19.24-0.55L19.24-0.55Q19.46-0.48 20.48-0.48L20.48-0.48L24.65-0.48L24.84-1.87L21.91-1.87Q21.07-1.87 20.92-1.79L20.92-1.79Q21.40-3.47 21.80-6.15L21.80-6.15L20.96-6.15Q19.83-6.15 19.61-6.11L19.61-6.11ZM24.87-2.52L25.06-4.13L22.17-4.13L21.87-2.52L24.87-2.52ZM35.19-7.61L35.19-7.61Q36.18-7.32 36.21-7.21L36.21-7.21Q36.21-7.17 36.14-7.06L36.14-7.06Q35.92-6.88 35.81-6.66L35.81-6.66Q35.70-6.44 35.48-6.11L35.48-6.11Q35.26-5.74 35.19-5.63L35.19-5.63L35.33-5.63Q36.25-5.63 36.62-5.71L36.62-5.71L36.62-4.90Q35.88-4.97 35.37-4.97L35.37-4.97L34.68-4.97L34.68-3.29L35.26-3.29Q36.29-3.33 36.87-3.37L36.87-3.37L36.87-2.56Q36.58-2.60 35.30-2.60L35.30-2.60L34.75-2.60Q35.37-0.80 37.16-0.04L37.16-0.04Q36.69 0.22 36.40 0.80L36.40 0.80Q34.75-0.55 34.46-1.72L34.46-1.72Q34.13-0.26 32.59 0.88L32.59 0.88Q32.48 0.69 31.93 0.15L31.93 0.15Q31.90 0.11 31.90 0.11L31.90 0.11Q33.54-0.51 33.91-2.63L33.91-2.63L33.69-2.63Q32.70-2.63 32.12-2.56L32.12-2.56L32.12-3.37Q32.77-3.33 33.62-3.29L33.62-3.29L33.94-3.29L33.94-4.97L33.80-4.97Q32.88-4.94 32.30-4.90L32.30-4.90L32.30-5.71Q32.92-5.67 33.76-5.63L33.76-5.63L34.57-5.63Q35.01-6.51 35.19-7.61ZM32.77-7.28L33.62-7.54Q34.02-6.77 34.16-6.18L34.16-6.18L33.36-5.96Q33.07-6.84 32.77-7.28L32.77-7.28ZM31.13-5.01L31.13-6.18L29.88-6.18L29.88-5.01L31.13-5.01ZM31.13-4.35L29.88-4.35L29.88-3.11L31.13-3.11L31.13-4.35ZM31.13-2.49L29.88-2.49L29.88-1.13L31.13-1.35L31.13-2.49ZM31.93 0.95L31.93 0.95L31.06 0.95Q31.06 0.77 31.09 0.22L31.09 0.22Q31.09-0.26 31.09-0.40L31.09-0.40L31.09-0.66Q29.96-0.40 28.68 0L28.68 0L28.38-0.91L29.12-1.02L29.12-6.18Q28.79-6.18 28.49-6.15L28.49-6.15L28.49-7.02Q28.90-6.95 29.74-6.91L29.74-6.91L30.98-6.91Q32.04-6.95 32.48-7.02L32.48-7.02L32.48-6.18Q32.37-6.18 32.19-6.22L32.19-6.22Q31.97-6.22 31.86-6.22L31.86-6.22L31.86-1.50L32.59-1.61L32.52-0.88Q32.04-0.84 31.86-0.77L31.86-0.77L31.86-0.44Q31.86 0.37 31.93 0.95ZM38.55-7.21L38.55-7.21Q38.96-7.17 39.98-7.13L39.98-7.13L44.11-7.13Q45.36-7.17 45.76-7.21L45.76-7.21Q45.72-6.80 45.69-5.78L45.69-5.78L45.69-0.40Q45.98 0.84 44.04 0.84L44.04 0.84Q44.00 0.29 43.60-0.11L43.60-0.11Q45.17 0.18 44.92-0.62L44.92-0.62L44.92-6.44L39.36-6.44L39.36-0.91Q39.36 0.29 39.43 0.66L39.43 0.66L38.48 0.66Q38.59 0.04 38.59-0.88L38.59-0.88L38.59-5.63Q38.59-6.88 38.55-7.21ZM39.40-0.95L39.40-0.95Q40.16-1.90 40.71-3.22L40.71-3.22Q40.13-4.50 39.54-5.30L39.54-5.30Q39.83-5.38 40.24-5.52L40.24-5.52Q40.64-4.79 41.00-4.02L41.00-4.02Q41.33-5.01 41.41-5.93L41.41-5.93Q41.52-5.89 41.77-5.82L41.77-5.82Q42.39-5.63 42.32-5.60L42.32-5.60Q42.32-5.60 42.28-5.56L42.28-5.56Q42.18-5.45 42.07-5.23L42.07-5.23Q41.99-5.05 41.85-4.65L41.85-4.65Q41.59-3.91 41.37-3.33L41.37-3.33Q41.77-2.60 42.18-1.83L42.18-1.83Q42.10-1.79 41.99-1.72L41.99-1.72Q41.63-1.54 41.44-1.39L41.44-1.39Q41.26-2.08 41.04-2.56L41.04-2.56Q40.46-1.24 40.09-0.62L40.09-0.62Q39.91-0.80 39.40-0.95ZM43.13-3.11L43.13-3.11Q42.65-4.06 42.21-4.68L42.21-4.68Q42.10-4.86 42.03-4.97L42.03-4.97Q42.21-5.05 42.50-5.16L42.50-5.16Q42.65-5.23 42.72-5.27L42.72-5.27Q43.02-4.68 43.27-4.13L43.27-4.13Q43.38-3.84 43.42-3.91L43.42-3.91Q43.71-4.83 43.78-5.78L43.78-5.78Q44.70-5.63 44.74-5.52L44.74-5.52Q44.74-5.52 44.70-5.49L44.70-5.49Q44.59-5.38 44.52-5.27L44.52-5.27Q44.48-5.12 44.37-4.86L44.37-4.86Q44.26-4.43 43.78-3.15L43.78-3.15Q44.44-1.76 44.70-1.24L44.70-1.24Q44.63-1.21 44.44-1.13L44.44-1.13Q44.15-1.02 43.93-0.91L43.93-0.91Q43.71-1.61 43.46-2.41L43.46-2.41Q43.38-2.27 43.20-1.94L43.20-1.94Q42.72-1.13 42.39-0.59L42.39-0.59Q41.99-0.77 41.52-0.88L41.52-0.88Q42.65-1.79 43.13-3.11ZM47.95-6.36L47.95-7.21Q48.32-7.17 49.38-7.17L49.38-7.17L52.31-7.17Q53.62-7.17 54.17-7.24L54.17-7.24L53.00-4.57L53.48-4.57Q54.36-4.57 54.72-4.61L54.72-4.61Q54.03-2.38 52.89-1.10L52.89-1.10Q53.95-0.40 55.82-0.22L55.82-0.22Q55.34 0.11 55.20 0.62L55.20 0.62Q53.19 0.07 52.34-0.66L52.34-0.66Q51.28 0.18 49.60 0.69L49.60 0.69Q49.23 0.15 48.83-0.04L48.83-0.04Q50.30-0.18 51.87-1.13L51.87-1.13Q51.10-2.01 50.26-4.13L50.26-4.13Q49.93-1.43 47.92 0.37L47.92 0.37Q47.59 0.04 47.04-0.11L47.04-0.11Q49.64-1.46 49.82-6.40L49.82-6.40L49.38-6.40Q48.32-6.40 47.95-6.36L47.95-6.36ZM53.00-6.40L53.00-6.40L50.62-6.40Q50.55-5.71 50.30-4.24L50.30-4.24L51.03-4.43Q51.47-2.74 52.38-1.61L52.38-1.61Q53.29-2.52 53.66-3.84L53.66-3.84L51.80-3.84Q52.38-4.97 53.00-6.40ZM57.03-6.69L57.94-6.69L57.94 0L57.03 0L57.03-6.69ZM61.20-5.93L58.93-5.93L58.93-6.69L64.34-6.69L64.34-5.93L62.07-5.93L62.07 0L61.20 0L61.20-5.93ZM71.36-7.50L71.36-7.50Q72.28-7.50 72.43-7.35L72.43-7.35Q72.43-7.32 72.39-7.28L72.39-7.28Q72.21-7.02 72.21-6.58L72.21-6.58L72.21-2.52Q72.83-2.60 73.34-2.71L73.34-2.71L73.41-1.94Q72.90-1.90 72.21-1.87L72.21-1.87L72.21-0.33Q72.21 0.26 72.28 0.69L72.28 0.69Q72.28 0.77 72.28 0.80L72.28 0.80L71.33 0.80Q71.33 0.80 71.33 0.73L71.33 0.73Q71.44 0.26 71.44-0.33L71.44-0.33L71.44-1.79Q71.04-1.72 69.90-1.57L69.90-1.57Q68.95-1.46 68.73-1.43L68.73-1.43L68.69-2.19Q69.65-2.23 71.44-2.45L71.44-2.45L71.44-6.47Q71.44-6.95 71.36-7.39L71.36-7.39Q71.36-7.46 71.36-7.50ZM68.62-7.39L68.62-7.39Q69.06-6.88 69.06-6.62L69.06-6.62Q69.06-6.62 68.95-6.62L68.95-6.62Q68.37-6.62 67.49-6.44L67.49-6.44L67.49-4.90L67.89-4.90Q68.29-4.90 68.73-4.97L68.73-4.97Q68.80-4.97 68.84-4.97L68.84-4.97L68.84-4.21Q68.80-4.21 68.69-4.21L68.69-4.21Q68.33-4.28 67.89-4.28L67.89-4.28L67.49-4.28L67.49-0.99Q67.49 0.26 67.52 0.66L67.52 0.66L66.72 0.66Q66.83-0.15 66.83-0.99L66.83-0.99L66.83-3.29Q66.17-1.87 65.37-0.95L65.37-0.95Q65.18-1.39 64.85-1.61L64.85-1.61Q65.99-2.52 66.68-4.24L66.68-4.24L66.13-4.24Q65.77-4.24 65.26-4.17L65.26-4.17Q65.11-4.17 65.07-4.17L65.07-4.17L65.07-4.97Q65.11-4.97 65.22-4.94L65.22-4.94Q65.66-4.86 66.10-4.90L66.10-4.90L66.83-4.90L66.83-6.33Q66.35-6.25 65.73-6.11L65.73-6.11Q65.62-6.44 65.33-6.84L65.33-6.84Q67.08-6.91 68.62-7.39ZM69.35-6.18L70.01-6.55Q70.74-5.60 70.96-5.23L70.96-5.23L70.27-4.83Q69.72-5.74 69.35-6.18L69.35-6.18ZM69.21-4.02L69.83-4.39Q70.34-3.91 70.78-3.18L70.78-3.18L70.08-2.82Q69.65-3.55 69.21-4.02L69.21-4.02ZM67.52-3.33L67.52-3.33L68.07-3.73Q68.40-3.40 68.91-2.67L68.91-2.67L68.26-2.19Q67.89-2.93 67.52-3.33ZM79.27-7.54L79.27-7.54Q80.11-7.54 80.29-7.39L80.29-7.39Q80.29-7.35 80.25-7.24L80.25-7.24Q80.11-6.99 80.11-6.58L80.11-6.58L80.11-6.15L81.35-6.15Q81.75-6.15 82.34-6.18L82.34-6.18Q82.52-6.22 82.56-6.22L82.56-6.22L82.56-5.41Q82.52-5.41 82.41-5.41L82.41-5.41Q81.90-5.45 81.42-5.45L81.42-5.45L80.11-5.45L80.11-4.17Q80.44-4.13 81.42-4.21L81.42-4.21Q81.83-4.21 81.94-4.21L81.94-4.21Q81.20-1.94 80.29-0.91L80.29-0.91Q81.28-0.22 82.81-0.04L82.81-0.04Q82.48 0.18 82.27 0.77L82.27 0.77Q80.66 0.22 79.78-0.40L79.78-0.40Q78.61 0.40 77.47 0.88L77.47 0.88Q77.11 0.37 76.74 0.18L76.74 0.18Q77.66 0.04 79.23-0.88L79.23-0.88Q78.46-1.94 78.02-3.29L78.02-3.29L78.50-3.47Q78.13-3.47 77.77-3.40L77.77-3.40L77.77-4.24Q77.80-4.24 77.91-4.24L77.91-4.24Q78.42-4.17 78.90-4.17L78.90-4.17L79.34-4.17L79.34-5.45L78.61-5.45Q78.17-5.45 77.66-5.41L77.66-5.41Q77.51-5.41 77.47-5.41L77.47-5.41L77.47-6.22Q77.51-6.22 77.62-6.22L77.62-6.22Q78.24-6.15 78.61-6.15L78.61-6.15L79.34-6.15L79.34-6.77Q79.30-7.32 79.27-7.54ZM75.68-7.50L75.68-7.50Q76.60-7.43 76.63-7.32L76.63-7.32Q76.63-7.28 76.60-7.21L76.60-7.21Q76.45-6.99 76.45-6.66L76.45-6.66L76.45-5.49Q76.74-5.49 77.14-5.52L77.14-5.52Q77.29-5.52 77.33-5.52L77.33-5.52L77.33-4.72Q77.29-4.72 77.22-4.72L77.22-4.72Q76.81-4.79 76.45-4.79L76.45-4.79L76.45-3.40L77.51-3.77L77.55-3.04L76.45-2.67L76.45 0Q76.56 0.73 75.17 0.88L75.17 0.88Q75.10 0.44 74.80 0L74.80 0Q75.86 0.15 75.72-0.29L75.72-0.29L75.72-2.49L74.40-2.05L74.22-2.85L75.72-3.18L75.72-4.79L75.24-4.79Q74.88-4.79 74.44-4.72L74.44-4.72Q74.33-4.72 74.29-4.72L74.29-4.72L74.29-5.56Q74.33-5.56 74.44-5.56L74.44-5.56Q74.84-5.49 75.21-5.49L75.21-5.49L75.72-5.49L75.72-6.62Q75.72-6.91 75.68-7.35L75.68-7.35Q75.68-7.46 75.68-7.50ZM80.91-3.47L78.72-3.47Q79.08-2.08 79.74-1.39L79.74-1.39Q80.22-1.90 80.91-3.47L80.91-3.47ZM88.96-7.61L88.96-7.61Q89.95-7.32 89.95-7.21L89.95-7.21Q89.95-7.17 89.87-7.13L89.87-7.13Q89.73-7.06 89.69-6.91L89.69-6.91Q89.36-6.36 89.18-5.78L89.18-5.78L90.53-5.78Q91.34-5.78 91.78-5.82L91.78-5.82Q91.48-1.02 91.41-0.18L91.41-0.18Q91.30 0.84 89.40 0.91L89.40 0.91Q89.29 0.37 88.96-0.04L88.96-0.04Q89.95 0.15 90.46-0.07L90.46-0.07Q90.71-0.04 90.82-3.33L90.82-3.33Q90.90-4.50 90.93-5.19L90.93-5.19L88.92-5.19Q88.56-4.50 88.04-3.58L88.04-3.58Q87.72-3.80 87.39-3.88L87.39-3.88L87.39-0.59Q87.39 0.33 87.42 0.59L87.42 0.59L86.58 0.59Q86.62 0.26 86.62-0.29L86.62-0.29L84.83-0.29Q84.83 0.26 84.86 0.66L84.86 0.66L84.02 0.66Q84.06 0.33 84.06-0.55L84.06-0.55L84.06-4.46Q84.06-4.61 84.02-5.16L84.02-5.16Q84.02-5.63 84.02-5.74L84.02-5.74Q84.57-5.71 84.83-5.71L84.83-5.71L85.08-5.71Q85.19-6.29 85.26-7.50L85.26-7.50Q86.29-7.39 86.22-7.24L86.22-7.24Q86.22-7.17 86.14-7.10L86.14-7.10Q86.07-7.02 86.03-6.91L86.03-6.91Q85.92-6.66 85.81-6.18L85.81-6.18Q85.74-5.89 85.70-5.71L85.70-5.71L86.33-5.71Q86.62-5.71 87.42-5.74L87.42-5.74Q87.39-5.49 87.39-4.57L87.39-4.57L87.39-4.06Q88.52-5.34 88.96-7.61ZM86.62-5.12L84.83-5.12L84.83-3.22L86.62-3.22L86.62-5.12ZM88.34-3.26L88.96-3.62Q89.18-3.33 89.73-2.27L89.73-2.27Q89.87-2.05 89.91-1.94L89.91-1.94L89.21-1.57Q89.11-2.01 88.34-3.26L88.34-3.26ZM86.62-2.67L84.83-2.67L84.83-0.88L86.62-0.88L86.62-2.67ZM96.75-7.64L96.75-7.64Q97.52-7.43 97.70-7.32L97.70-7.32Q97.70-7.24 97.59-7.21L97.59-7.21Q97.48-7.13 97.45-7.06L97.45-7.06Q98.58-4.76 101.47-4.10L101.47-4.10Q101.07-3.84 100.70-3.22L100.70-3.22Q97.99-4.50 97.04-6.51L97.04-6.51Q96.09-4.65 93.60-2.96L93.60-2.96Q93.20-3.44 92.80-3.62L92.80-3.62Q95.80-4.94 96.75-7.64ZM96.57-4.65L96.57-4.65Q96.64-4.65 96.75-4.65L96.75-4.65Q97.70-4.57 97.66-4.54L97.66-4.54Q97.66-4.50 97.63-4.46L97.63-4.46Q97.48-4.13 97.48-3.77L97.48-3.77L97.48-0.37Q97.48 0.51 97.55 0.95L97.55 0.95L96.57 0.95Q96.64 0.44 96.64-0.37L96.64-0.37L96.64-3.55Q96.64-3.95 96.60-4.35L96.60-4.35Q96.57-4.57 96.57-4.65ZM106.00-7.54L106.00-7.54Q106.11-7.54 106.33-7.50L106.33-7.50Q107.28-7.43 107.21-7.35L107.21-7.35Q107.21-7.32 107.14-7.21L107.14-7.21Q106.92-6.99 106.92-6.58L106.92-6.58L106.92-5.41Q107.32-1.46 110.94-0.18L110.94-0.18Q110.94-0.18 110.87-0.15L110.87-0.15Q110.43 0.04 110.06 0.66L110.06 0.66Q106.99-1.02 106.55-4.21L106.55-4.21Q106.22-1.21 103.26 0.88L103.26 0.88Q102.93 0.55 102.46 0.29L102.46 0.29Q102.35 0.22 102.35 0.22L102.35 0.22Q104.21-0.55 105.27-2.45L105.27-2.45Q106.26-4.39 106.00-7.54ZM116.61-7.57L116.61-7.57Q117.38-7.57 117.49-7.50L117.49-7.50Q117.31-7.35 117.34-6.44L117.34-6.44L118.51-6.44Q118.33-6.84 118.00-7.21L118.00-7.21L118.59-7.43Q118.81-7.24 119.14-6.69L119.14-6.69L118.59-6.44L118.84-6.44Q119.47-6.44 120.05-6.51L120.05-6.51L120.05-5.82Q119.58-5.93 118.84-5.89L118.84-5.89L117.34-5.89L117.34-5.27L118.55-5.27Q119.03-5.27 119.39-5.34L119.39-5.34Q119.32-5.01 119.32-4.65L119.32-4.65L119.32-3.15Q119.32-2.56 119.39-2.19L119.39-2.19L118.66-2.19L118.66-2.67L117.34-2.67Q117.34-2.34 117.42-1.98L117.42-1.98L116.58-1.98Q116.69-2.05 116.69-2.67L116.69-2.67L115.37-2.67L115.37-2.05L114.64-2.05Q114.71-2.38 114.71-2.89L114.71-2.89L114.71-4.61Q114.71-5.05 114.64-5.34L114.64-5.34Q115.04-5.27 115.41-5.27L115.41-5.27L116.69-5.27L116.69-5.89L115.41-5.89Q114.86-5.89 114.31-5.85L114.31-5.85L114.31-6.51Q115.04-6.44 115.41-6.44L115.41-6.44L116.69-6.44Q116.69-7.17 116.61-7.57ZM112.59-7.54L112.59-7.54Q113.54-7.54 113.58-7.43L113.58-7.43Q113.54-7.35 113.47-7.24L113.47-7.24Q113.36-7.02 113.36-6.91L113.36-6.91L113.36-5.05Q113.50-5.05 113.72-5.08L113.72-5.08Q114.05-5.08 114.23-5.12L114.23-5.12L114.23-4.39Q113.91-4.43 113.36-4.43L113.36-4.43L113.36-0.91Q113.36 0.26 113.47 0.80L113.47 0.80L112.59 0.80Q112.59 0.69 112.63 0.51L112.63 0.51Q112.70-0.07 112.70-0.88L112.70-0.88L112.70-4.43Q112.11-4.46 111.64-4.35L111.64-4.35L111.64-5.12Q112.11-5.05 112.70-5.05L112.70-5.05L112.70-6.55Q112.70-6.73 112.63-7.32L112.63-7.32Q112.59-7.46 112.59-7.54ZM116.69-4.72L115.37-4.72L115.37-4.24L116.69-4.24L116.69-4.72ZM118.66-4.72L117.34-4.72L117.34-4.24L118.66-4.24L118.66-4.72ZM118.66-3.69L117.34-3.69L117.34-3.22L118.66-3.22L118.66-3.69ZM116.69-3.69L115.37-3.69L115.37-3.22L116.69-3.22L116.69-3.69ZM118.08-2.12L118.08-2.12Q118.77-2.12 118.95-2.01L118.95-2.01Q118.95-2.01 118.92-1.94L118.92-1.94Q118.81-1.79 118.84-1.76L118.84-1.76L118.84-1.57L119.21-1.57Q120.01-1.57 120.34-1.65L120.34-1.65L120.34-0.95Q119.76-1.02 119.21-1.02L119.21-1.02L118.84-1.02L118.84 0.15Q118.99 0.77 117.53 0.91L117.53 0.91Q117.53 0.55 117.09 0.04L117.09 0.04Q117.89 0.22 118.04 0.07L118.04 0.07Q118.15 0 118.15-0.69L118.15-0.69Q118.15-0.91 118.15-1.02L118.15-1.02L115.08-1.02Q114.67-1.02 113.87-0.95L113.87-0.95L113.87-1.65Q114.60-1.57 115.08-1.57L115.08-1.57L118.15-1.57Q118.19-1.76 118.08-2.12ZM115.19-0.59L115.84-0.91Q116.14-0.62 116.50 0L116.50 0L115.73 0.37Q115.51-0.15 115.19-0.59L115.19-0.59ZM124.77-7.39L125.68-7.46Q125.72-7.21 125.83-6.84L125.83-6.84Q125.90-6.62 125.94-6.51L125.94-6.51L127.29-6.51Q128.06-6.51 129.01-6.58L129.01-6.58Q129.05-6.58 129.05-6.51L129.05-6.51Q128.98-5.60 129.05-4.97L129.05-4.97L128.10-4.97Q128.17-5.45 128.17-5.93L128.17-5.93L122.43-5.93Q122.43-5.30 122.46-4.97L122.46-4.97L121.55-4.97Q121.70-6.11 121.59-6.55L121.59-6.55Q121.59-6.58 121.66-6.58L121.66-6.58Q122.28-6.51 123.09-6.51L123.09-6.51L125.06-6.51Q125.03-6.80 124.77-7.39L124.77-7.39ZM124.00-5.74L124.00-5.74Q124.88-5.52 124.88-5.41L124.88-5.41Q124.84-5.38 124.73-5.30L124.73-5.30Q124.55-5.16 124.37-4.97L124.37-4.97Q126.93-4.97 127.81-5.05L127.81-5.05Q127.84-5.05 127.84-5.01L127.84-5.01Q127.84-5.01 127.84-4.97L127.84-4.97Q127.37-4.10 126.05-3.15L126.05-3.15Q127.70-2.56 129.52-2.56L129.52-2.56Q129.49-2.52 129.45-2.45L129.45-2.45Q129.12-1.94 129.09-1.68L129.09-1.68Q128.46-1.76 127.95-1.87L127.95-1.87Q127.92-1.65 127.92-0.73L127.92-0.73Q127.92-0.33 127.95 0.40L127.95 0.40Q127.95 0.73 127.95 0.80L127.95 0.80L127.11 0.80Q127.11 0.62 127.15 0.29L127.15 0.29L123.60 0.29Q123.60 0.51 123.64 0.69L123.64 0.69L122.79 0.69Q122.87 0.33 122.87-0.40L122.87-0.40Q122.87-1.35 122.79-1.87L122.79-1.87Q122.06-1.68 121.66-1.61L121.66-1.61Q121.51-1.98 121.11-2.30L121.11-2.30Q123.12-2.52 124.59-3.11L124.59-3.11Q124.29-3.33 123.53-4.10L123.53-4.10Q123.38-3.95 122.94-3.58L122.94-3.58Q122.72-3.37 122.68-3.33L122.68-3.33L121.99-3.80Q123.27-4.61 124.00-5.74ZM126.60-4.43L126.60-4.43L124.04-4.43Q124.62-3.88 125.39-3.47L125.39-3.47Q126.05-3.88 126.60-4.43ZM125.32-2.78L125.32-2.78Q124.07-2.23 122.94-1.90L122.94-1.90Q123.42-1.87 123.82-1.87L123.82-1.87L126.89-1.87Q127.40-1.87 127.88-1.90L127.88-1.90Q126.27-2.30 125.32-2.78ZM127.15-1.32L123.60-1.32L123.60-0.18L127.15-0.18L127.15-1.32Z"
                                  transform="translate(-0.32920652785594, 7.6449071468768)"></path>
                        </g>
                    </g>
                </g>
            </g>
        </g>
    </g>
    <mask>
        <g fill="white">
            <rect stroke-width="2" x="0" y="0" width="139.19000244140625" height="12.59000015258789"
                  fill-opacity="1"></rect>
        </g>
        <g transform="translate(5,2)" fill="black">
            <g>
                <path d="M5.96-7.54L5.96-7.54Q6.80-7.28 6.95-7.02L6.95-7.02Q6.95-6.95 6.80-6.84L6.80-6.84Q6.62-6.69 6.51-6.58L6.51-6.58Q6.25-6.36 5.82-5.67L5.82-5.67L6.55-5.67Q7.28-5.67 8.16-5.74L8.16-5.74L8.16-4.90Q7.50-4.97 6.55-4.97L6.55-4.97L4.94-4.97L4.94-3.22L6.73-3.22Q7.83-3.26 8.52-3.33L8.52-3.33L8.52-2.49Q7.75-2.56 6.73-2.56L6.73-2.56L5.05-2.56Q6.25-0.37 8.93-0.22L8.93-0.22Q8.30 0.15 8.05 0.69L8.05 0.69Q5.78 0.04 4.68-1.94L4.68-1.94Q3.80-0.11 1.21 0.88L1.21 0.88Q0.80 0.33 0.33 0.07L0.33 0.07Q3.47-0.55 4.06-2.56L4.06-2.56L2.30-2.56Q1.43-2.56 0.77-2.49L0.77-2.49L0.77-3.33Q1.54-3.29 2.30-3.26L2.30-3.26L4.17-3.26L4.17-4.97L2.74-4.97Q1.90-4.97 1.13-4.90L1.13-4.90L1.13-5.74Q2.01-5.67 2.74-5.67L2.74-5.67L5.05-5.67Q5.63-6.66 5.96-7.54ZM2.34-7.10L3.15-7.46Q3.44-7.10 4.02-6.25L4.02-6.25Q4.10-6.22 4.10-6.18L4.10-6.18L3.26-5.74Q3.00-6.29 2.34-7.10L2.34-7.10ZM14.38-7.28L15.25-7.54Q15.40-7.21 15.44-7.10L15.44-7.10Q15.47-6.99 15.51-6.91L15.51-6.91Q15.51-6.84 15.73-6.25L15.73-6.25L14.85-6.04Q14.70-6.62 14.38-7.28L14.38-7.28ZM10.46-6.55L11.01-7.17Q11.81-6.55 12.40-6.07L12.40-6.07L11.81-5.38Q11.19-6.04 10.46-6.55L10.46-6.55ZM18.00-5.96L18.00-5.96L18.00-5.12Q17.45-5.19 16.39-5.19L16.39-5.19L15.51-5.19L15.51-3.33L16.31-3.33Q17.08-3.33 17.63-3.40L17.63-3.40L17.63-2.60Q17.63-2.63 16.28-2.63L16.28-2.63L15.51-2.63L15.51-0.26L16.31-0.26Q17.27-0.26 18.14-0.33L18.14-0.33L18.14 0.44Q17.34 0.37 16.35 0.37L16.35 0.37L13.64 0.37Q12.84 0.37 12.00 0.40L12.00 0.40L12.00-0.29Q12.25-0.29 12.88-0.26L12.88-0.26Q13.46-0.26 13.64-0.26L13.64-0.26L14.67-0.26L14.67-2.63L13.97-2.63Q12.91-2.63 12.62-2.60L12.62-2.60L12.62-3.44Q13.02-3.33 14.05-3.33L14.05-3.33L14.67-3.33L14.67-5.19L13.97-5.19Q12.66-5.19 12.47-5.16L12.47-5.16L12.47-5.96Q12.47-5.96 12.62-5.96L12.62-5.96Q13.64-5.89 13.97-5.89L13.97-5.89L16.39-5.89Q17.52-5.93 18.00-5.96ZM9.91-4.46L10.39-5.16Q11.34-4.54 11.89-4.06L11.89-4.06L11.34-3.37Q10.72-3.95 9.91-4.46L9.91-4.46ZM11.12-3.00L11.12-3.00Q11.56-2.63 11.92-2.52L11.92-2.52Q11.45-0.77 10.90 0.69L10.90 0.69L9.99 0.11Q10.68-1.21 11.12-3.00ZM19.61-6.11L19.61-6.91Q19.86-6.84 21.03-6.84L21.03-6.84L25.90-6.84Q26.78-6.84 27.03-6.91L27.03-6.91L27.03-6.11Q26.81-6.15 25.90-6.15L25.90-6.15L22.57-6.15L22.31-4.83L24.95-4.83Q25.53-4.83 26.01-4.90L26.01-4.90Q25.79-3.66 25.53-1.50L25.53-1.50Q25.42-0.69 25.39-0.48L25.39-0.48L26.34-0.48Q27.32-0.48 27.58-0.55L27.58-0.55L27.58 0.22Q27.32 0.15 26.37 0.15L26.37 0.15L20.52 0.15Q19.50 0.15 19.20 0.22L19.20 0.22L19.20-0.55Q19.20-0.55 19.24-0.55L19.24-0.55Q19.46-0.48 20.48-0.48L20.48-0.48L24.65-0.48L24.84-1.87L21.91-1.87Q21.07-1.87 20.92-1.79L20.92-1.79Q21.40-3.47 21.80-6.15L21.80-6.15L20.96-6.15Q19.83-6.15 19.61-6.11L19.61-6.11ZM24.87-2.52L25.06-4.13L22.17-4.13L21.87-2.52L24.87-2.52ZM35.19-7.61L35.19-7.61Q36.18-7.32 36.21-7.21L36.21-7.21Q36.21-7.17 36.14-7.06L36.14-7.06Q35.92-6.88 35.81-6.66L35.81-6.66Q35.70-6.44 35.48-6.11L35.48-6.11Q35.26-5.74 35.19-5.63L35.19-5.63L35.33-5.63Q36.25-5.63 36.62-5.71L36.62-5.71L36.62-4.90Q35.88-4.97 35.37-4.97L35.37-4.97L34.68-4.97L34.68-3.29L35.26-3.29Q36.29-3.33 36.87-3.37L36.87-3.37L36.87-2.56Q36.58-2.60 35.30-2.60L35.30-2.60L34.75-2.60Q35.37-0.80 37.16-0.04L37.16-0.04Q36.69 0.22 36.40 0.80L36.40 0.80Q34.75-0.55 34.46-1.72L34.46-1.72Q34.13-0.26 32.59 0.88L32.59 0.88Q32.48 0.69 31.93 0.15L31.93 0.15Q31.90 0.11 31.90 0.11L31.90 0.11Q33.54-0.51 33.91-2.63L33.91-2.63L33.69-2.63Q32.70-2.63 32.12-2.56L32.12-2.56L32.12-3.37Q32.77-3.33 33.62-3.29L33.62-3.29L33.94-3.29L33.94-4.97L33.80-4.97Q32.88-4.94 32.30-4.90L32.30-4.90L32.30-5.71Q32.92-5.67 33.76-5.63L33.76-5.63L34.57-5.63Q35.01-6.51 35.19-7.61ZM32.77-7.28L33.62-7.54Q34.02-6.77 34.16-6.18L34.16-6.18L33.36-5.96Q33.07-6.84 32.77-7.28L32.77-7.28ZM31.13-5.01L31.13-6.18L29.88-6.18L29.88-5.01L31.13-5.01ZM31.13-4.35L29.88-4.35L29.88-3.11L31.13-3.11L31.13-4.35ZM31.13-2.49L29.88-2.49L29.88-1.13L31.13-1.35L31.13-2.49ZM31.93 0.95L31.93 0.95L31.06 0.95Q31.06 0.77 31.09 0.22L31.09 0.22Q31.09-0.26 31.09-0.40L31.09-0.40L31.09-0.66Q29.96-0.40 28.68 0L28.68 0L28.38-0.91L29.12-1.02L29.12-6.18Q28.79-6.18 28.49-6.15L28.49-6.15L28.49-7.02Q28.90-6.95 29.74-6.91L29.74-6.91L30.98-6.91Q32.04-6.95 32.48-7.02L32.48-7.02L32.48-6.18Q32.37-6.18 32.19-6.22L32.19-6.22Q31.97-6.22 31.86-6.22L31.86-6.22L31.86-1.50L32.59-1.61L32.52-0.88Q32.04-0.84 31.86-0.77L31.86-0.77L31.86-0.44Q31.86 0.37 31.93 0.95ZM38.55-7.21L38.55-7.21Q38.96-7.17 39.98-7.13L39.98-7.13L44.11-7.13Q45.36-7.17 45.76-7.21L45.76-7.21Q45.72-6.80 45.69-5.78L45.69-5.78L45.69-0.40Q45.98 0.84 44.04 0.84L44.04 0.84Q44.00 0.29 43.60-0.11L43.60-0.11Q45.17 0.18 44.92-0.62L44.92-0.62L44.92-6.44L39.36-6.44L39.36-0.91Q39.36 0.29 39.43 0.66L39.43 0.66L38.48 0.66Q38.59 0.04 38.59-0.88L38.59-0.88L38.59-5.63Q38.59-6.88 38.55-7.21ZM39.40-0.95L39.40-0.95Q40.16-1.90 40.71-3.22L40.71-3.22Q40.13-4.50 39.54-5.30L39.54-5.30Q39.83-5.38 40.24-5.52L40.24-5.52Q40.64-4.79 41.00-4.02L41.00-4.02Q41.33-5.01 41.41-5.93L41.41-5.93Q41.52-5.89 41.77-5.82L41.77-5.82Q42.39-5.63 42.32-5.60L42.32-5.60Q42.32-5.60 42.28-5.56L42.28-5.56Q42.18-5.45 42.07-5.23L42.07-5.23Q41.99-5.05 41.85-4.65L41.85-4.65Q41.59-3.91 41.37-3.33L41.37-3.33Q41.77-2.60 42.18-1.83L42.18-1.83Q42.10-1.79 41.99-1.72L41.99-1.72Q41.63-1.54 41.44-1.39L41.44-1.39Q41.26-2.08 41.04-2.56L41.04-2.56Q40.46-1.24 40.09-0.62L40.09-0.62Q39.91-0.80 39.40-0.95ZM43.13-3.11L43.13-3.11Q42.65-4.06 42.21-4.68L42.21-4.68Q42.10-4.86 42.03-4.97L42.03-4.97Q42.21-5.05 42.50-5.16L42.50-5.16Q42.65-5.23 42.72-5.27L42.72-5.27Q43.02-4.68 43.27-4.13L43.27-4.13Q43.38-3.84 43.42-3.91L43.42-3.91Q43.71-4.83 43.78-5.78L43.78-5.78Q44.70-5.63 44.74-5.52L44.74-5.52Q44.74-5.52 44.70-5.49L44.70-5.49Q44.59-5.38 44.52-5.27L44.52-5.27Q44.48-5.12 44.37-4.86L44.37-4.86Q44.26-4.43 43.78-3.15L43.78-3.15Q44.44-1.76 44.70-1.24L44.70-1.24Q44.63-1.21 44.44-1.13L44.44-1.13Q44.15-1.02 43.93-0.91L43.93-0.91Q43.71-1.61 43.46-2.41L43.46-2.41Q43.38-2.27 43.20-1.94L43.20-1.94Q42.72-1.13 42.39-0.59L42.39-0.59Q41.99-0.77 41.52-0.88L41.52-0.88Q42.65-1.79 43.13-3.11ZM47.95-6.36L47.95-7.21Q48.32-7.17 49.38-7.17L49.38-7.17L52.31-7.17Q53.62-7.17 54.17-7.24L54.17-7.24L53.00-4.57L53.48-4.57Q54.36-4.57 54.72-4.61L54.72-4.61Q54.03-2.38 52.89-1.10L52.89-1.10Q53.95-0.40 55.82-0.22L55.82-0.22Q55.34 0.11 55.20 0.62L55.20 0.62Q53.19 0.07 52.34-0.66L52.34-0.66Q51.28 0.18 49.60 0.69L49.60 0.69Q49.23 0.15 48.83-0.04L48.83-0.04Q50.30-0.18 51.87-1.13L51.87-1.13Q51.10-2.01 50.26-4.13L50.26-4.13Q49.93-1.43 47.92 0.37L47.92 0.37Q47.59 0.04 47.04-0.11L47.04-0.11Q49.64-1.46 49.82-6.40L49.82-6.40L49.38-6.40Q48.32-6.40 47.95-6.36L47.95-6.36ZM53.00-6.40L53.00-6.40L50.62-6.40Q50.55-5.71 50.30-4.24L50.30-4.24L51.03-4.43Q51.47-2.74 52.38-1.61L52.38-1.61Q53.29-2.52 53.66-3.84L53.66-3.84L51.80-3.84Q52.38-4.97 53.00-6.40ZM57.03-6.69L57.94-6.69L57.94 0L57.03 0L57.03-6.69ZM61.20-5.93L58.93-5.93L58.93-6.69L64.34-6.69L64.34-5.93L62.07-5.93L62.07 0L61.20 0L61.20-5.93ZM71.36-7.50L71.36-7.50Q72.28-7.50 72.43-7.35L72.43-7.35Q72.43-7.32 72.39-7.28L72.39-7.28Q72.21-7.02 72.21-6.58L72.21-6.58L72.21-2.52Q72.83-2.60 73.34-2.71L73.34-2.71L73.41-1.94Q72.90-1.90 72.21-1.87L72.21-1.87L72.21-0.33Q72.21 0.26 72.28 0.69L72.28 0.69Q72.28 0.77 72.28 0.80L72.28 0.80L71.33 0.80Q71.33 0.80 71.33 0.73L71.33 0.73Q71.44 0.26 71.44-0.33L71.44-0.33L71.44-1.79Q71.04-1.72 69.90-1.57L69.90-1.57Q68.95-1.46 68.73-1.43L68.73-1.43L68.69-2.19Q69.65-2.23 71.44-2.45L71.44-2.45L71.44-6.47Q71.44-6.95 71.36-7.39L71.36-7.39Q71.36-7.46 71.36-7.50ZM68.62-7.39L68.62-7.39Q69.06-6.88 69.06-6.62L69.06-6.62Q69.06-6.62 68.95-6.62L68.95-6.62Q68.37-6.62 67.49-6.44L67.49-6.44L67.49-4.90L67.89-4.90Q68.29-4.90 68.73-4.97L68.73-4.97Q68.80-4.97 68.84-4.97L68.84-4.97L68.84-4.21Q68.80-4.21 68.69-4.21L68.69-4.21Q68.33-4.28 67.89-4.28L67.89-4.28L67.49-4.28L67.49-0.99Q67.49 0.26 67.52 0.66L67.52 0.66L66.72 0.66Q66.83-0.15 66.83-0.99L66.83-0.99L66.83-3.29Q66.17-1.87 65.37-0.95L65.37-0.95Q65.18-1.39 64.85-1.61L64.85-1.61Q65.99-2.52 66.68-4.24L66.68-4.24L66.13-4.24Q65.77-4.24 65.26-4.17L65.26-4.17Q65.11-4.17 65.07-4.17L65.07-4.17L65.07-4.97Q65.11-4.97 65.22-4.94L65.22-4.94Q65.66-4.86 66.10-4.90L66.10-4.90L66.83-4.90L66.83-6.33Q66.35-6.25 65.73-6.11L65.73-6.11Q65.62-6.44 65.33-6.84L65.33-6.84Q67.08-6.91 68.62-7.39ZM69.35-6.18L70.01-6.55Q70.74-5.60 70.96-5.23L70.96-5.23L70.27-4.83Q69.72-5.74 69.35-6.18L69.35-6.18ZM69.21-4.02L69.83-4.39Q70.34-3.91 70.78-3.18L70.78-3.18L70.08-2.82Q69.65-3.55 69.21-4.02L69.21-4.02ZM67.52-3.33L67.52-3.33L68.07-3.73Q68.40-3.40 68.91-2.67L68.91-2.67L68.26-2.19Q67.89-2.93 67.52-3.33ZM79.27-7.54L79.27-7.54Q80.11-7.54 80.29-7.39L80.29-7.39Q80.29-7.35 80.25-7.24L80.25-7.24Q80.11-6.99 80.11-6.58L80.11-6.58L80.11-6.15L81.35-6.15Q81.75-6.15 82.34-6.18L82.34-6.18Q82.52-6.22 82.56-6.22L82.56-6.22L82.56-5.41Q82.52-5.41 82.41-5.41L82.41-5.41Q81.90-5.45 81.42-5.45L81.42-5.45L80.11-5.45L80.11-4.17Q80.44-4.13 81.42-4.21L81.42-4.21Q81.83-4.21 81.94-4.21L81.94-4.21Q81.20-1.94 80.29-0.91L80.29-0.91Q81.28-0.22 82.81-0.04L82.81-0.04Q82.48 0.18 82.27 0.77L82.27 0.77Q80.66 0.22 79.78-0.40L79.78-0.40Q78.61 0.40 77.47 0.88L77.47 0.88Q77.11 0.37 76.74 0.18L76.74 0.18Q77.66 0.04 79.23-0.88L79.23-0.88Q78.46-1.94 78.02-3.29L78.02-3.29L78.50-3.47Q78.13-3.47 77.77-3.40L77.77-3.40L77.77-4.24Q77.80-4.24 77.91-4.24L77.91-4.24Q78.42-4.17 78.90-4.17L78.90-4.17L79.34-4.17L79.34-5.45L78.61-5.45Q78.17-5.45 77.66-5.41L77.66-5.41Q77.51-5.41 77.47-5.41L77.47-5.41L77.47-6.22Q77.51-6.22 77.62-6.22L77.62-6.22Q78.24-6.15 78.61-6.15L78.61-6.15L79.34-6.15L79.34-6.77Q79.30-7.32 79.27-7.54ZM75.68-7.50L75.68-7.50Q76.60-7.43 76.63-7.32L76.63-7.32Q76.63-7.28 76.60-7.21L76.60-7.21Q76.45-6.99 76.45-6.66L76.45-6.66L76.45-5.49Q76.74-5.49 77.14-5.52L77.14-5.52Q77.29-5.52 77.33-5.52L77.33-5.52L77.33-4.72Q77.29-4.72 77.22-4.72L77.22-4.72Q76.81-4.79 76.45-4.79L76.45-4.79L76.45-3.40L77.51-3.77L77.55-3.04L76.45-2.67L76.45 0Q76.56 0.73 75.17 0.88L75.17 0.88Q75.10 0.44 74.80 0L74.80 0Q75.86 0.15 75.72-0.29L75.72-0.29L75.72-2.49L74.40-2.05L74.22-2.85L75.72-3.18L75.72-4.79L75.24-4.79Q74.88-4.79 74.44-4.72L74.44-4.72Q74.33-4.72 74.29-4.72L74.29-4.72L74.29-5.56Q74.33-5.56 74.44-5.56L74.44-5.56Q74.84-5.49 75.21-5.49L75.21-5.49L75.72-5.49L75.72-6.62Q75.72-6.91 75.68-7.35L75.68-7.35Q75.68-7.46 75.68-7.50ZM80.91-3.47L78.72-3.47Q79.08-2.08 79.74-1.39L79.74-1.39Q80.22-1.90 80.91-3.47L80.91-3.47ZM88.96-7.61L88.96-7.61Q89.95-7.32 89.95-7.21L89.95-7.21Q89.95-7.17 89.87-7.13L89.87-7.13Q89.73-7.06 89.69-6.91L89.69-6.91Q89.36-6.36 89.18-5.78L89.18-5.78L90.53-5.78Q91.34-5.78 91.78-5.82L91.78-5.82Q91.48-1.02 91.41-0.18L91.41-0.18Q91.30 0.84 89.40 0.91L89.40 0.91Q89.29 0.37 88.96-0.04L88.96-0.04Q89.95 0.15 90.46-0.07L90.46-0.07Q90.71-0.04 90.82-3.33L90.82-3.33Q90.90-4.50 90.93-5.19L90.93-5.19L88.92-5.19Q88.56-4.50 88.04-3.58L88.04-3.58Q87.72-3.80 87.39-3.88L87.39-3.88L87.39-0.59Q87.39 0.33 87.42 0.59L87.42 0.59L86.58 0.59Q86.62 0.26 86.62-0.29L86.62-0.29L84.83-0.29Q84.83 0.26 84.86 0.66L84.86 0.66L84.02 0.66Q84.06 0.33 84.06-0.55L84.06-0.55L84.06-4.46Q84.06-4.61 84.02-5.16L84.02-5.16Q84.02-5.63 84.02-5.74L84.02-5.74Q84.57-5.71 84.83-5.71L84.83-5.71L85.08-5.71Q85.19-6.29 85.26-7.50L85.26-7.50Q86.29-7.39 86.22-7.24L86.22-7.24Q86.22-7.17 86.14-7.10L86.14-7.10Q86.07-7.02 86.03-6.91L86.03-6.91Q85.92-6.66 85.81-6.18L85.81-6.18Q85.74-5.89 85.70-5.71L85.70-5.71L86.33-5.71Q86.62-5.71 87.42-5.74L87.42-5.74Q87.39-5.49 87.39-4.57L87.39-4.57L87.39-4.06Q88.52-5.34 88.96-7.61ZM86.62-5.12L84.83-5.12L84.83-3.22L86.62-3.22L86.62-5.12ZM88.34-3.26L88.96-3.62Q89.18-3.33 89.73-2.27L89.73-2.27Q89.87-2.05 89.91-1.94L89.91-1.94L89.21-1.57Q89.11-2.01 88.34-3.26L88.34-3.26ZM86.62-2.67L84.83-2.67L84.83-0.88L86.62-0.88L86.62-2.67ZM96.75-7.64L96.75-7.64Q97.52-7.43 97.70-7.32L97.70-7.32Q97.70-7.24 97.59-7.21L97.59-7.21Q97.48-7.13 97.45-7.06L97.45-7.06Q98.58-4.76 101.47-4.10L101.47-4.10Q101.07-3.84 100.70-3.22L100.70-3.22Q97.99-4.50 97.04-6.51L97.04-6.51Q96.09-4.65 93.60-2.96L93.60-2.96Q93.20-3.44 92.80-3.62L92.80-3.62Q95.80-4.94 96.75-7.64ZM96.57-4.65L96.57-4.65Q96.64-4.65 96.75-4.65L96.75-4.65Q97.70-4.57 97.66-4.54L97.66-4.54Q97.66-4.50 97.63-4.46L97.63-4.46Q97.48-4.13 97.48-3.77L97.48-3.77L97.48-0.37Q97.48 0.51 97.55 0.95L97.55 0.95L96.57 0.95Q96.64 0.44 96.64-0.37L96.64-0.37L96.64-3.55Q96.64-3.95 96.60-4.35L96.60-4.35Q96.57-4.57 96.57-4.65ZM106.00-7.54L106.00-7.54Q106.11-7.54 106.33-7.50L106.33-7.50Q107.28-7.43 107.21-7.35L107.21-7.35Q107.21-7.32 107.14-7.21L107.14-7.21Q106.92-6.99 106.92-6.58L106.92-6.58L106.92-5.41Q107.32-1.46 110.94-0.18L110.94-0.18Q110.94-0.18 110.87-0.15L110.87-0.15Q110.43 0.04 110.06 0.66L110.06 0.66Q106.99-1.02 106.55-4.21L106.55-4.21Q106.22-1.21 103.26 0.88L103.26 0.88Q102.93 0.55 102.46 0.29L102.46 0.29Q102.35 0.22 102.35 0.22L102.35 0.22Q104.21-0.55 105.27-2.45L105.27-2.45Q106.26-4.39 106.00-7.54ZM116.61-7.57L116.61-7.57Q117.38-7.57 117.49-7.50L117.49-7.50Q117.31-7.35 117.34-6.44L117.34-6.44L118.51-6.44Q118.33-6.84 118.00-7.21L118.00-7.21L118.59-7.43Q118.81-7.24 119.14-6.69L119.14-6.69L118.59-6.44L118.84-6.44Q119.47-6.44 120.05-6.51L120.05-6.51L120.05-5.82Q119.58-5.93 118.84-5.89L118.84-5.89L117.34-5.89L117.34-5.27L118.55-5.27Q119.03-5.27 119.39-5.34L119.39-5.34Q119.32-5.01 119.32-4.65L119.32-4.65L119.32-3.15Q119.32-2.56 119.39-2.19L119.39-2.19L118.66-2.19L118.66-2.67L117.34-2.67Q117.34-2.34 117.42-1.98L117.42-1.98L116.58-1.98Q116.69-2.05 116.69-2.67L116.69-2.67L115.37-2.67L115.37-2.05L114.64-2.05Q114.71-2.38 114.71-2.89L114.71-2.89L114.71-4.61Q114.71-5.05 114.64-5.34L114.64-5.34Q115.04-5.27 115.41-5.27L115.41-5.27L116.69-5.27L116.69-5.89L115.41-5.89Q114.86-5.89 114.31-5.85L114.31-5.85L114.31-6.51Q115.04-6.44 115.41-6.44L115.41-6.44L116.69-6.44Q116.69-7.17 116.61-7.57ZM112.59-7.54L112.59-7.54Q113.54-7.54 113.58-7.43L113.58-7.43Q113.54-7.35 113.47-7.24L113.47-7.24Q113.36-7.02 113.36-6.91L113.36-6.91L113.36-5.05Q113.50-5.05 113.72-5.08L113.72-5.08Q114.05-5.08 114.23-5.12L114.23-5.12L114.23-4.39Q113.91-4.43 113.36-4.43L113.36-4.43L113.36-0.91Q113.36 0.26 113.47 0.80L113.47 0.80L112.59 0.80Q112.59 0.69 112.63 0.51L112.63 0.51Q112.70-0.07 112.70-0.88L112.70-0.88L112.70-4.43Q112.11-4.46 111.64-4.35L111.64-4.35L111.64-5.12Q112.11-5.05 112.70-5.05L112.70-5.05L112.70-6.55Q112.70-6.73 112.63-7.32L112.63-7.32Q112.59-7.46 112.59-7.54ZM116.69-4.72L115.37-4.72L115.37-4.24L116.69-4.24L116.69-4.72ZM118.66-4.72L117.34-4.72L117.34-4.24L118.66-4.24L118.66-4.72ZM118.66-3.69L117.34-3.69L117.34-3.22L118.66-3.22L118.66-3.69ZM116.69-3.69L115.37-3.69L115.37-3.22L116.69-3.22L116.69-3.69ZM118.08-2.12L118.08-2.12Q118.77-2.12 118.95-2.01L118.95-2.01Q118.95-2.01 118.92-1.94L118.92-1.94Q118.81-1.79 118.84-1.76L118.84-1.76L118.84-1.57L119.21-1.57Q120.01-1.57 120.34-1.65L120.34-1.65L120.34-0.95Q119.76-1.02 119.21-1.02L119.21-1.02L118.84-1.02L118.84 0.15Q118.99 0.77 117.53 0.91L117.53 0.91Q117.53 0.55 117.09 0.04L117.09 0.04Q117.89 0.22 118.04 0.07L118.04 0.07Q118.15 0 118.15-0.69L118.15-0.69Q118.15-0.91 118.15-1.02L118.15-1.02L115.08-1.02Q114.67-1.02 113.87-0.95L113.87-0.95L113.87-1.65Q114.60-1.57 115.08-1.57L115.08-1.57L118.15-1.57Q118.19-1.76 118.08-2.12ZM115.19-0.59L115.84-0.91Q116.14-0.62 116.50 0L116.50 0L115.73 0.37Q115.51-0.15 115.19-0.59L115.19-0.59ZM124.77-7.39L125.68-7.46Q125.72-7.21 125.83-6.84L125.83-6.84Q125.90-6.62 125.94-6.51L125.94-6.51L127.29-6.51Q128.06-6.51 129.01-6.58L129.01-6.58Q129.05-6.58 129.05-6.51L129.05-6.51Q128.98-5.60 129.05-4.97L129.05-4.97L128.10-4.97Q128.17-5.45 128.17-5.93L128.17-5.93L122.43-5.93Q122.43-5.30 122.46-4.97L122.46-4.97L121.55-4.97Q121.70-6.11 121.59-6.55L121.59-6.55Q121.59-6.58 121.66-6.58L121.66-6.58Q122.28-6.51 123.09-6.51L123.09-6.51L125.06-6.51Q125.03-6.80 124.77-7.39L124.77-7.39ZM124.00-5.74L124.00-5.74Q124.88-5.52 124.88-5.41L124.88-5.41Q124.84-5.38 124.73-5.30L124.73-5.30Q124.55-5.16 124.37-4.97L124.37-4.97Q126.93-4.97 127.81-5.05L127.81-5.05Q127.84-5.05 127.84-5.01L127.84-5.01Q127.84-5.01 127.84-4.97L127.84-4.97Q127.37-4.10 126.05-3.15L126.05-3.15Q127.70-2.56 129.52-2.56L129.52-2.56Q129.49-2.52 129.45-2.45L129.45-2.45Q129.12-1.94 129.09-1.68L129.09-1.68Q128.46-1.76 127.95-1.87L127.95-1.87Q127.92-1.65 127.92-0.73L127.92-0.73Q127.92-0.33 127.95 0.40L127.95 0.40Q127.95 0.73 127.95 0.80L127.95 0.80L127.11 0.80Q127.11 0.62 127.15 0.29L127.15 0.29L123.60 0.29Q123.60 0.51 123.64 0.69L123.64 0.69L122.79 0.69Q122.87 0.33 122.87-0.40L122.87-0.40Q122.87-1.35 122.79-1.87L122.79-1.87Q122.06-1.68 121.66-1.61L121.66-1.61Q121.51-1.98 121.11-2.30L121.11-2.30Q123.12-2.52 124.59-3.11L124.59-3.11Q124.29-3.33 123.53-4.10L123.53-4.10Q123.38-3.95 122.94-3.58L122.94-3.58Q122.72-3.37 122.68-3.33L122.68-3.33L121.99-3.80Q123.27-4.61 124.00-5.74ZM126.60-4.43L126.60-4.43L124.04-4.43Q124.62-3.88 125.39-3.47L125.39-3.47Q126.05-3.88 126.60-4.43ZM125.32-2.78L125.32-2.78Q124.07-2.23 122.94-1.90L122.94-1.90Q123.42-1.87 123.82-1.87L123.82-1.87L126.89-1.87Q127.40-1.87 127.88-1.90L127.88-1.90Q126.27-2.30 125.32-2.78ZM127.15-1.32L123.60-1.32L123.60-0.18L127.15-0.18L127.15-1.32Z"
                      transform="translate(-0.32920652785594, 7.6449071468768)"></path>
            </g>
        </g>
    </mask>
</svg>
